<?xml version="1.0" encoding="UTF-8" standalone="no"?>
<!-- Created with Inkscape (http://www.inkscape.org/) -->
<svg
   xmlns:dc="http://purl.org/dc/elements/1.1/"
   xmlns:cc="http://creativecommons.org/ns#"
   xmlns:rdf="http://www.w3.org/1999/02/22-rdf-syntax-ns#"
   xmlns:svg="http://www.w3.org/2000/svg"
   xmlns="http://www.w3.org/2000/svg"
   xmlns:xlink="http://www.w3.org/1999/xlink"
   xmlns:sodipodi="http://sodipodi.sourceforge.net/DTD/sodipodi-0.dtd"
   xmlns:inkscape="http://www.inkscape.org/namespaces/inkscape"
   width="455"
   height="295"
   id="svg2"
   sodipodi:version="0.32"
   inkscape:version="0.46"
   version="1.0"
   sodipodi:docname="splash-beta.svg"
   inkscape:output_extension="org.inkscape.output.svg.inkscape"
   inkscape:export-filename="/home/alec/workspace/Big Red/content/splash-beta.png"
   inkscape:export-xdpi="90"
   inkscape:export-ydpi="90">
  <sodipodi:namedview
     id="base"
     pagecolor="#ffffff"
     bordercolor="#666666"
     borderopacity="1.0"
     gridtolerance="10000"
     guidetolerance="10"
     objecttolerance="10"
     inkscape:pageopacity="0.0"
     inkscape:pageshadow="2"
     inkscape:zoom="1.6745763"
     inkscape:cx="15.336202"
     inkscape:cy="365.3036"
     inkscape:document-units="px"
     inkscape:current-layer="layer1"
     showgrid="false"
     showguides="true"
     inkscape:guide-bbox="true"
     inkscape:window-width="923"
     inkscape:window-height="723"
     inkscape:window-x="5"
     inkscape:window-y="49" />
  <defs
     id="defs4">
    <linearGradient
       id="linearGradient3163">
      <stop
         style="stop-color:#ffffff;stop-opacity:1;"
         offset="0"
         id="stop3165" />
      <stop
         style="stop-color:#ff0000;stop-opacity:1;"
         offset="1"
         id="stop3167" />
    </linearGradient>
    <inkscape:perspective
       id="perspective10"
       inkscape:persp3d-origin="372.04724 : 350.78739 : 1"
       inkscape:vp_z="744.09448 : 526.18109 : 1"
       inkscape:vp_y="0 : 1000 : 0"
       inkscape:vp_x="0 : 526.18109 : 1"
       sodipodi:type="inkscape:persp3d" />
    <radialGradient
       inkscape:collect="always"
       xlink:href="#linearGradient3163"
       id="radialGradient3912"
       gradientUnits="userSpaceOnUse"
       cx="147.14287"
       cy="68.14286"
       fx="147.14287"
       fy="68.14286"
       r="36.42857" />
  </defs>
  <metadata
     id="metadata7">
    <rdf:RDF>
      <cc:Work
         rdf:about="">
        <dc:format>image/svg+xml</dc:format>
        <dc:type
           rdf:resource="http://purl.org/dc/dcmitype/StillImage" />
      </cc:Work>
    </rdf:RDF>
  </metadata>
  <g
     id="layer1"
     inkscape:groupmode="layer"
     inkscape:label="Layer 1">
    <rect
       style="opacity:1;fill:#000000;fill-opacity:1;stroke:#000000;stroke-width:10.22060299;stroke-miterlimit:4;stroke-dasharray:none"
       id="rect3774"
       width="444.77939"
       height="284.77939"
       x="5.1103058"
       y="5.1103058" />
    <g
       id="g3903"
       transform="matrix(1.2944434,0,0,1.2944434,626.36675,-373.50037)">
      <path
         inkscape:export-ydpi="90"
         inkscape:export-xdpi="90"
         inkscape:export-filename="/home/alec/workspace/Big Red/content/logo-big.png"
         transform="matrix(1.3512476,0,0,1.3571875,-543.84591,269.6491)"
         d="M 166.78572,83.5 A 36.42857,36.42857 0 1 1 93.928577,83.5 A 36.42857,36.42857 0 1 1 166.78572,83.5 z"
         sodipodi:ry="36.42857"
         sodipodi:rx="36.42857"
         sodipodi:cy="83.5"
         sodipodi:cx="130.35715"
         id="path2383"
         style="fill:url(#radialGradient3912);fill-opacity:1;stroke:none"
         sodipodi:type="arc" />
      <path
         inkscape:export-ydpi="90"
         inkscape:export-xdpi="90"
         inkscape:export-filename="/home/alec/workspace/Big Red/content/logo-big.png"
         id="path3219"
         d="M -418.13765,421.27237 L -418.13765,424.19881 L -417.33535,424.19881 C -414.52475,424.19881 -413.38802,424.41935 -412.90156,424.96223 C -412.52321,425.45082 -412.52153,425.64423 -412.52153,429.1186 L -412.52153,452.65734 C -412.52153,456.07746 -412.52321,456.29461 -412.90156,456.72889 C -413.388,457.32607 -414.52476,457.53474 -417.33535,457.53474 L -418.13765,457.53474 L -418.13765,460.46117 L -396.26433,460.46117 C -390.64315,460.46117 -387.78863,460.04383 -385.03208,458.84951 C -381.57289,457.27516 -379.28928,453.8771 -379.28928,450.23985 C -379.28928,446.43973 -381.45466,443.33684 -385.45435,441.54537 C -387.29205,440.67678 -388.93551,440.2289 -391.7461,439.84889 C -389.09767,439.41457 -387.55891,439.02778 -386.04552,438.32205 C -382.80253,436.74772 -381.0628,434.15718 -381.0628,430.89994 C -381.0628,427.80555 -382.72147,424.90116 -385.36989,423.43539 C -388.34264,421.69821 -390.84584,421.27237 -397.27777,421.27237 L -418.13765,421.27237 z M -399.76913,424.19881 L -398.16452,424.19881 C -393.40815,424.19881 -390.85934,426.60614 -390.85934,431.11199 C -390.85934,433.77207 -391.79003,435.90459 -393.51961,437.26175 C -394.97894,438.45608 -396.79809,438.8734 -400.14916,438.8734 L -402.80944,438.8734 L -402.80944,427.37973 C -402.80944,425.8054 -402.71655,425.35412 -402.17603,424.91983 C -401.63553,424.43123 -400.79608,424.19881 -399.76913,424.19881 z M -402.80944,441.84225 L -399.0935,441.84225 C -395.68837,441.84225 -394.10401,442.17986 -392.59062,443.15702 C -390.75295,444.40566 -389.63476,446.78072 -389.63476,449.60367 C -389.63476,452.20945 -390.60091,454.62019 -392.16836,455.92307 C -393.51961,457.06311 -395.27455,457.53474 -397.86894,457.53474 L -399.51576,457.53474 C -401.4075,457.53474 -402.31623,457.23445 -402.64052,456.47442 C -402.80268,456.04012 -402.80944,455.84842 -402.80944,454.05692 L -402.80944,441.84225 z"
         style="font-size:40px;font-style:normal;font-variant:normal;font-weight:bold;font-stretch:normal;fill:#ffffff;fill-opacity:1;stroke:none;stroke-width:1px;stroke-linecap:butt;stroke-linejoin:miter;stroke-opacity:1;font-family:Century Schoolbook L;-inkscape-font-specification:Century Schoolbook L Medium" />
      <path
         inkscape:export-ydpi="90"
         inkscape:export-xdpi="90"
         inkscape:export-filename="/home/alec/workspace/Big Red/content/logo-big.png"
         id="path3213"
         d="M -362.84643,434.80155 L -375.54817,435.18156 L -375.54817,437.95022 L -374.79146,437.95022 C -371.49442,437.95022 -371.33225,438.22167 -371.33225,443.05324 L -371.33225,452.66212 L -371.33225,455.15935 C -371.33225,457.33086 -371.92683,457.71087 -375.33196,457.71087 L -375.54817,457.71087 L -375.54817,460.47952 L -358.63054,460.47952 L -358.63054,457.71087 L -358.95485,457.71087 C -362.25189,457.71087 -362.84643,457.33086 -362.84643,455.21363 L -362.84643,452.66212 L -362.84643,434.80155"
         style="font-size:40px;font-style:normal;font-variant:normal;font-weight:bold;font-stretch:normal;fill:#ff0000;fill-opacity:1;stroke:none;stroke-width:1px;stroke-linecap:butt;stroke-linejoin:miter;stroke-opacity:1;font-family:Century Schoolbook L;-inkscape-font-specification:Century Schoolbook L Medium" />
      <path
         inkscape:export-ydpi="90"
         inkscape:export-xdpi="90"
         inkscape:export-filename="/home/alec/workspace/Big Red/content/logo-big.png"
         id="path3211"
         d="M -327.43515,431.28164 C -329.8674,431.28164 -331.98211,432.57947 -334.3603,435.56526 C -336.41419,434.5338 -338.82447,433.996 -341.58102,433.996 C -348.98586,433.996 -354.33343,437.90981 -354.33343,443.28426 C -354.33342,446.92151 -352.31332,449.56129 -348.42172,450.91844 C -352.63761,451.67845 -354.67124,453.43944 -354.67124,456.26238 C -354.67124,458.65103 -352.90786,460.44081 -349.77296,461.30941 C -353.39429,461.85229 -355.47354,463.59289 -355.47354,466.14438 C -355.47354,469.72737 -351.10899,471.4459 -342.29887,471.4459 C -332.24562,471.44588 -326.63286,468.26328 -326.63286,462.45453 C -326.63286,459.41443 -328.40636,456.8222 -331.10887,456.00789 C -332.89251,455.41071 -335.28253,455.20207 -339.17412,455.20207 L -342.89005,455.20207 C -345.75469,455.20207 -346.39484,454.93572 -346.39484,453.63283 C -346.39484,452.27565 -345.43377,451.85149 -342.29887,451.85149 L -341.32766,451.85149 C -337.76037,451.85149 -335.7808,451.51391 -333.72691,450.53672 C -330.59199,449.07098 -328.74419,446.2989 -328.74419,442.98738 C -328.74419,440.43589 -329.61741,438.83438 -331.99563,436.88002 C -331.29298,435.90288 -330.61736,435.35319 -329.96875,435.35319 C -329.80658,435.35319 -329.71539,435.39051 -329.71539,435.60766 L -329.71539,435.81973 C -329.71539,437.06835 -328.26112,438.27963 -326.80175,438.27963 C -324.91002,438.27963 -323.42365,436.75619 -323.42365,434.80185 C -323.42365,432.68464 -325.05695,431.28164 -327.43515,431.28164 z M -341.45434,436.7952 C -338.85996,436.7952 -337.48505,438.98877 -337.48505,443.11461 C -337.48508,446.96902 -338.95623,449.22195 -341.49657,449.22195 C -343.11807,449.22195 -344.15345,448.6282 -344.74802,447.27101 C -345.34257,446.07671 -345.59253,444.51252 -345.59253,442.77531 C -345.59255,438.81235 -344.21089,436.7952 -341.45434,436.7952 z M -346.47928,462.79383 L -339.38524,462.79383 C -336.03416,462.79381 -335.36359,462.91768 -334.44475,463.51484 C -333.95831,463.84058 -333.64245,464.59043 -333.64245,465.29614 C -333.64245,467.52193 -336.35169,468.6043 -341.91883,468.6043 C -346.0807,468.6043 -348.46394,467.47442 -348.46394,465.46578 C -348.46391,464.27148 -347.83055,463.39099 -346.47928,462.79383 z"
         style="font-size:40px;font-style:normal;font-variant:normal;font-weight:bold;font-stretch:normal;fill:#ffffff;fill-opacity:1;stroke:none;stroke-width:1px;stroke-linecap:butt;stroke-linejoin:miter;stroke-opacity:1;font-family:Century Schoolbook L;-inkscape-font-specification:Century Schoolbook L Medium" />
      <path
         inkscape:export-ydpi="90"
         inkscape:export-xdpi="90"
         inkscape:export-filename="/home/alec/workspace/Big Red/content/logo-big.png"
         id="path3205"
         d="M -307.46204,421.27237 L -307.46204,424.19881 L -306.65972,424.19881 C -303.84912,424.19881 -302.71239,424.41935 -302.22593,424.96223 C -301.84758,425.45082 -301.8459,425.64423 -301.8459,429.1186 L -301.8459,452.61492 C -301.8459,456.08934 -301.8476,456.24031 -302.22593,456.72889 C -302.71237,457.27179 -303.84912,457.49231 -306.65972,457.49231 L -307.46204,457.49231 L -307.46204,460.41875 L -285.84206,460.41875 L -285.84206,457.49231 L -287.23555,457.49231 C -290.04613,457.49229 -291.26732,457.27179 -291.75377,456.72889 C -292.13213,456.24033 -292.1338,456.08934 -292.1338,452.61492 L -292.1338,441.63018 L -289.09349,441.63018 C -286.76934,441.63018 -285.25259,442.19852 -284.27968,443.28426 C -283.41489,444.31573 -283.18686,444.94005 -282.97067,448.03442 C -282.64636,451.67168 -282.37273,453.95176 -282.21058,454.82035 C -281.29175,459.05478 -278.29872,461.30941 -273.59637,461.30941 C -267.759,461.30941 -264.391,457.98769 -264.391,452.23321 L -264.391,451.59705 L -267.30464,451.59705 C -267.3587,455.01713 -268.1745,456.72889 -269.79601,456.72889 C -270.39053,456.72891 -271.03407,456.41165 -271.35838,455.92307 C -271.68269,455.48877 -271.72152,455.11554 -271.99179,453.37834 C -271.99175,453.16119 -272.13703,452.61153 -272.24513,451.85149 L -272.62518,449.7733 C -273.43595,444.88745 -275.48138,442.44111 -280.18373,440.86676 C -277.31907,440.3239 -275.91883,439.94898 -274.56759,439.29752 C -271.27055,437.61462 -269.37373,434.64067 -269.37373,431.11199 C -269.37373,427.85477 -270.91245,425.06912 -273.72306,423.22334 C -275.77696,421.92047 -279.43378,421.27237 -284.40637,421.27237 L -307.46204,421.27237 z M -288.2912,424.19881 L -286.98218,424.19881 C -281.95554,424.19881 -279.677,426.42631 -279.677,431.36646 C -279.677,436.90378 -281.94711,438.66133 -289.13574,438.66133 L -292.1338,438.66133 L -292.1338,427.6766 C -292.1338,424.58225 -291.75039,424.19881 -288.2912,424.19881 z"
         style="font-size:40px;font-style:normal;font-variant:normal;font-weight:bold;font-stretch:normal;fill:#ffffff;fill-opacity:1;stroke:none;stroke-width:1px;stroke-linecap:butt;stroke-linejoin:miter;stroke-opacity:1;font-family:Century Schoolbook L;-inkscape-font-specification:Century Schoolbook L Medium" />
      <path
         inkscape:export-ydpi="90"
         inkscape:export-xdpi="90"
         inkscape:export-filename="/home/alec/workspace/Big Red/content/logo-big.png"
         id="path3201"
         d="M -248.2605,433.996 C -252.58447,433.996 -256.19909,435.38376 -258.90155,438.15239 C -261.33381,440.70391 -262.7864,444.2818 -262.7864,447.86478 C -262.78638,451.71918 -261.13957,455.66691 -258.43707,458.00127 C -255.95079,460.1185 -252.32607,461.30941 -248.21826,461.30941 C -241.89443,461.30941 -237.71738,458.46609 -235.33918,452.65734 L -237.99945,451.59705 C -240.16143,455.83146 -242.59371,457.61957 -246.10694,457.61957 C -248.59322,457.61957 -250.75188,456.41674 -252.1031,454.35383 C -253.02193,452.88808 -253.4003,451.21361 -253.45434,448.11924 L -235.33918,448.11924 L -235.33918,447.22858 C -235.33918,439.13977 -240.36921,433.996 -248.2605,433.996 z M -248.0916,436.7952 C -245.33505,436.7952 -243.8267,439.08039 -243.8267,443.36908 C -243.8267,444.67199 -244.22364,445.10798 -245.30463,445.10798 L -253.41212,445.10798 C -253.41212,439.95069 -251.33457,436.7952 -248.0916,436.7952 z"
         style="font-size:40px;font-style:normal;font-variant:normal;font-weight:bold;font-stretch:normal;fill:#ffffff;fill-opacity:1;stroke:none;stroke-width:1px;stroke-linecap:butt;stroke-linejoin:miter;stroke-opacity:1;font-family:Century Schoolbook L;-inkscape-font-specification:Century Schoolbook L Medium" />
      <path
         inkscape:export-filename="/home/alec/workspace/Big Red/content/logo-big.png"
         inkscape:export-ydpi="90"
         inkscape:export-xdpi="90"
         id="path3197"
         d="M -202.78256,420.46656 L -216.46395,421.27237 L -216.46395,424.07158 L -214.73266,424.07158 C -211.43562,424.07158 -211.27008,424.28703 -211.27008,429.1186 L -211.27008,437.64345 C -213.32399,435.14625 -215.76131,433.996 -219.16644,433.996 C -226.08481,433.996 -231.49656,440.10844 -231.49656,448.03442 C -231.4966,455.90611 -226.69964,461.30941 -219.67314,461.30941 C -215.78158,461.30941 -213.02164,459.81651 -210.8056,456.55924 L -210.8056,460.46117 L -198.13765,459.8674 L -198.13765,456.94097 L -199.61557,456.94097 C -201.56138,456.94097 -201.71676,456.93927 -202.14916,456.55924 C -202.63559,456.12496 -202.78256,455.4735 -202.78256,453.84488 L -202.78256,420.46656 z M -216.67508,437.68586 C -213.32399,437.68586 -211.18562,441.58439 -211.18562,447.61031 C -211.18562,453.52764 -213.45067,457.61957 -216.80175,457.61957 C -220.20691,457.61957 -222.12229,454.13838 -222.12229,447.94959 C -222.1223,441.4894 -220.13426,437.68586 -216.67508,437.68586 z"
         style="font-size:40px;font-style:normal;font-variant:normal;font-weight:bold;font-stretch:normal;fill:#ffffff;fill-opacity:1;stroke:none;stroke-width:1px;stroke-linecap:butt;stroke-linejoin:miter;stroke-opacity:1;font-family:Century Schoolbook L;-inkscape-font-specification:Century Schoolbook L Medium" />
    </g>
    <text
       xml:space="preserve"
       style="font-size:31.35064316px;font-style:normal;font-variant:normal;font-weight:normal;font-stretch:normal;text-align:center;text-anchor:middle;fill:#ffffff;fill-opacity:1;stroke:none;stroke-width:1px;stroke-linecap:butt;stroke-linejoin:miter;stroke-opacity:1;font-family:ArmyChalk;-inkscape-font-specification:ArmyChalk"
       x="327.29584"
       y="23.141045"
       id="text3914"
       transform="matrix(0.9864194,0.1642462,-0.1642462,0.9864194,0,0)"><tspan
         sodipodi:role="line"
         id="tspan3916"
         x="327.29584"
         y="23.141045">DANGEROUSLY</tspan><tspan
         sodipodi:role="line"
         x="327.29584"
         y="62.329353"
         id="tspan3920">EXPERIMENTAL</tspan><tspan
         sodipodi:role="line"
         x="327.29584"
         y="101.51765"
         id="tspan3918">PRE-ALPHA</tspan></text>
    <path
       transform="matrix(0.9864194,0.1642462,-0.1642462,0.9864194,0,0)"
       style="fill:none;fill-opacity:1;stroke:#ffffff;stroke-width:10;stroke-linejoin:miter;stroke-miterlimit:4;stroke-opacity:1"
       d="M 235.04359,-15.961863 L 257.9611,-15.961863 L 280.87861,-15.961863 L 303.79612,-15.961863 L 326.71364,-15.961863 L 349.63115,-15.961863 L 372.54866,-15.961863 L 395.46617,-15.961863 L 418.38368,-15.961863 C 419.76868,-15.961863 421.11993,-15.822488 422.42423,-15.556941 C 423.72852,-15.291394 424.98587,-14.899675 426.18306,-14.394988 C 427.38024,-13.8903 428.51727,-13.272644 429.58095,-12.555222 C 430.64462,-11.8378 431.63493,-11.020613 432.53868,-10.116863 C 433.44243,-9.2131128 434.25962,-8.2228002 434.97704,-7.1591284 C 435.69446,-6.0954565 436.31212,-4.9584252 436.8168,-3.7612377 C 437.32149,-2.5640501 437.71321,-1.3067064 437.97876,-0.0024094922 C 438.2443,1.3018874 438.38368,2.6531374 438.38368,4.0381374 L 438.38368,15.460201 L 438.38368,26.882265 L 438.38368,38.304329 L 438.38368,49.726393 L 438.38368,61.148457 L 438.38368,72.57052 L 438.38368,83.992584 L 438.38368,95.414648 C 438.38368,96.799648 438.2443,98.150898 437.97876,99.455196 C 437.71321,100.75949 437.32149,102.01684 436.8168,103.21402 C 436.31212,104.41121 435.69446,105.54824 434.97704,106.61192 C 434.25962,107.67559 433.44243,108.6659 432.53868,109.56965 C 431.63493,110.4734 430.64462,111.29059 429.58095,112.00801 C 428.51727,112.72543 427.38024,113.34309 426.18305,113.84777 C 424.98587,114.35246 423.72852,114.74418 422.42423,115.00973 C 421.11993,115.27528 419.76868,115.41465 418.38368,115.41465 L 395.46617,115.41465 L 372.54866,115.41465 L 349.63115,115.41465 L 326.71364,115.41465 L 303.79612,115.41465 L 280.87861,115.41465 L 257.9611,115.41465 L 235.04359,115.41465 C 233.65859,115.41465 232.30734,115.27528 231.00304,115.00973 C 229.69875,114.74418 228.4414,114.35246 227.24421,113.84777 C 226.04703,113.34309 224.91,112.72543 223.84632,112.00801 C 222.78265,111.29059 221.79234,110.4734 220.88859,109.56965 C 219.98484,108.6659 219.16765,107.67559 218.45023,106.61192 C 217.73281,105.54824 217.11515,104.41121 216.61046,103.21402 C 216.10578,102.01684 215.71406,100.75949 215.44851,99.455196 C 215.18296,98.150898 215.04359,96.799648 215.04359,95.414648 L 215.04359,83.992584 L 215.04359,72.57052 L 215.04359,61.148457 L 215.04359,49.726393 L 215.04359,38.304329 L 215.04359,26.882265 L 215.04359,15.460201 L 215.04359,4.0381374 C 215.04359,2.6531374 215.18296,1.3018874 215.44851,-0.0024094922 C 215.71406,-1.3067064 216.10578,-2.5640501 216.61046,-3.7612377 C 217.11515,-4.9584252 217.73281,-6.0954565 218.45023,-7.1591284 C 219.16765,-8.2228002 219.98484,-9.2131128 220.88859,-10.116863 C 221.79234,-11.020613 222.78265,-11.8378 223.84632,-12.555222 C 224.91,-13.272644 226.04703,-13.8903 227.24421,-14.394988 C 228.4414,-14.899675 229.69875,-15.291394 231.00304,-15.556941 C 232.30734,-15.822488 233.65859,-15.961863 235.04359,-15.961863 z"
       id="rect3928"
       sodipodi:nodetypes="cccccccccssssssscccccccccssssssscccccccccssssssscccccccccsssssssc" />
  </g>
</svg>
