<?xml version="1.0" encoding="UTF-8" standalone="no"?>
<!-- Created with Inkscape (http://www.inkscape.org/) -->

<svg
   xmlns:dc="http://purl.org/dc/elements/1.1/"
   xmlns:cc="http://creativecommons.org/ns#"
   xmlns:rdf="http://www.w3.org/1999/02/22-rdf-syntax-ns#"
   xmlns:svg="http://www.w3.org/2000/svg"
   xmlns="http://www.w3.org/2000/svg"
   version="1.1"
   width="16"
   height="16"
   id="svg2">
  <defs
     id="defs4" />
  <metadata
     id="metadata7">
    <rdf:RDF>
      <cc:Work
         rdf:about="">
        <dc:format>image/svg+xml</dc:format>
        <dc:type
           rdf:resource="http://purl.org/dc/dcmitype/StillImage" />
        <dc:title></dc:title>
      </cc:Work>
    </rdf:RDF>
  </metadata>
  <path
     d="m 0.2989502,0.29895 0,0.906006 0,6.342041 0,0.906006 0,6.342041 0,0.906006 7.248047,0 7.2480468,0 0.906006,0 0,-7.248047 0,-7.248047 0,-0.906006 -0.906006,0 -6.3420408,0 -0.906006,0 -6.342041,0 -0.906006,0 z m 0.906006,0.906006 6.342041,0 0,6.342041 -6.342041,0 0,-6.342041 z m 7.248047,0 6.3420408,0 0,6.342041 -6.3420408,0 0,-6.342041 z m -7.248047,7.248047 6.342041,0 0,6.342041 -6.342041,0 0,-6.342041 z m 7.248047,0 6.3420408,0 0,6.342041 -6.3420408,0 0,-6.342041 z"
     id="rect2994"
     style="fill:#000000;fill-opacity:1" />
</svg>
